Coordinates
version=1
nRows=6
nColumns=63
inDegrees=yes

Units are S.I. units (second, meters, Newtons, ...)
If the header above contains a line with 'inDegrees', this indicates whether rotational values are in degrees (yes) or radians (no).

endheader
time	pelvis_tilt	pelvis_list	pelvis_rotation	pelvis_tx	pelvis_ty	pelvis_tz	hip_flexion_r	hip_adduction_r	hip_rotation_r	knee_angle_r	knee_angle_r_beta	ankle_angle_r	subtalar_angle_r	mtp_angle_r	hip_flexion_l	hip_adduction_l	hip_rotation_l	knee_angle_l	knee_angle_l_beta	ankle_angle_l	subtalar_angle_l	mtp_angle_l	L5_S1_Flex_Ext	L5_S1_Lat_Bending	L5_S1_axial_rotation	L4_L5_Flex_Ext	L4_L5_Lat_Bending	L4_L5_axial_rotation	L3_L4_Flex_Ext	L3_L4_Lat_Bending	L3_L4_axial_rotation	L2_L3_Flex_Ext	L2_L3_Lat_Bending	L2_L3_axial_rotation	L1_L2_Flex_Ext	L1_L2_Lat_Bending	L1_L2_axial_rotation	L1_T12_Flex_Ext	L1_T12_Lat_Bending	L1_T12_axial_rotation	Abs_r3	Abs_r2	Abs_r1	Abs_t1	Abs_t2	neck_flexion	neck_bending	neck_rotation	arm_flex_r	arm_add_r	arm_rot_r	elbow_flex_r	pro_sup_r	wrist_flex_r	wrist_dev_r	arm_flex_l	arm_add_l	arm_rot_l	elbow_flex_l	pro_sup_l	wrist_flex_l	wrist_dev_l
      3.17647059	      5.02089326	     -4.12857572	     85.30526177	      0.22338348	      0.96241483	      0.57830312	      0.33259762	      1.24716287	      5.23396377	      5.89518978	      0.10289047	     24.72827779	      9.75228059	      0.00000000	      6.39459436	     -2.50445115	     -3.29828009	     18.86717561	      0.32929433	     27.96024522	     -5.62534225	      0.00000000	      0.15066259	      0.01710722	      1.69604119	      0.27979549	      0.02275261	      1.80204376	      0.24752356	      0.04159451	      1.80204376	      0.17219227	      0.04159451	      1.48403604	      0.13990528	      0.03488505	      1.37803347	      0.08608860	      0.02649909	      1.27203089	      1.07616778	      0.19352035	      9.43287229	      0.00000000	      0.00000000	     16.96740758	     -0.19330450	     -0.61132492	     24.27710903	    -35.39894624	     53.66359155	    140.26009627	     65.74049213	     37.29961505	      5.00663906	      0.05233875	    -14.57219858	     42.28705006	     39.74466754	     85.71345321	    -13.78256734	     -2.78144554
      3.19607843	      5.01174367	     -4.04036636	     84.82597324	      0.22422994	      0.96254964	      0.57818993	      0.29386545	      1.25776817	      5.90483003	      5.92390557	      0.10339166	     24.70005294	      9.51110010	      0.00000000	      6.26287539	     -2.61853271	     -4.27917111	     18.85617375	      0.32910232	     28.37259599	     -5.10191337	      0.00000000	      0.14405503	      0.02034791	      1.73891258	      0.26752460	      0.02706272	      1.84759462	      0.23666802	      0.04947390	      1.84759462	      0.16464050	      0.04947390	      1.52154851	      0.13376950	      0.04149345	      1.41286647	      0.08231305	      0.03151891	      1.30418443	      1.02897070	      0.23017961	      9.67131009	      0.00000000	      0.00000000	     16.77803150	     -0.38595607	     -0.13973538	     24.58402215	    -35.25947479	     53.85391874	    140.31927642	     66.23929844	     37.72926416	      5.39659640	      0.02386006	    -14.66311559	     42.39449114	     39.79709597	     86.31352739	    -14.42001284	     -3.00625734
      3.21568627	      5.02330333	     -3.94982055	     84.61658053	      0.22478859	      0.96263691	      0.57775882	      0.19873709	      1.30375364	      6.51380639	      5.92703774	      0.10344632	     24.68039774	      8.95181661	      0.00000000	      6.14940506	     -2.71685672	     -4.95272007	     18.87540766	      0.32943801	     28.76219203	     -4.64278082	      0.00000000	      0.13823287	      0.02166677	      1.75002416	      0.25671227	      0.02881680	      1.85940067	      0.22710279	      0.05268059	      1.85940067	      0.15798635	      0.05268059	      1.53127114	      0.12836305	      0.04418288	      1.42189463	      0.07898626	      0.03356183	      1.31251812	      0.98738359	      0.24509884	      9.73310938	      0.00000000	      0.00000000	     16.62614843	     -0.50051899	      0.03056097	     24.63398368	    -35.17341032	     53.79124975	    140.59326848	     67.55977918	     37.84488800	      5.78869835	      0.03920035	    -14.80950450	     42.75840536	     39.87042247	     86.71874732	    -15.23600471	     -3.26126732
      3.23529412	      4.99671971	     -3.72876172	     84.33275006	      0.22539915	      0.96286309	      0.57699350	     -0.07271280	      1.26462244	      6.84291115	      5.88084959	      0.10264019	     24.76184235	      8.94879104	      0.00000000	      5.83655775	     -2.72855265	     -5.50914510	     18.83568437	      0.32874471	     29.04357553	     -4.42184622	      0.00000000	      0.11675997	      0.01927493	      1.78611378	      0.21683494	      0.02563566	      1.89774589	      0.19182495	      0.04686507	      1.89774589	      0.13344497	      0.04686507	      1.56284956	      0.10842331	      0.03930544	      1.45121745	      0.06671665	      0.02985687	      1.33958534	      0.83400479	      0.21804189	      9.93382902	      0.00000000	      0.00000000	     16.44566650	     -0.44226092	      0.34720125	     24.82091268	    -35.16905180	     54.05943666	    140.71432960	     67.76182227	     37.82015694	      6.09414779	      0.03934059	    -14.91733116	     42.90974766	     39.91956723	     86.81555722	    -15.38688300	     -3.27409593
      3.25490196	      5.04519392	     -3.73628911	     84.47782790	      0.22552872	      0.96265047	      0.57588979	     -0.14912510	      1.37867364	      7.58170881	      5.86446574	      0.10235424	     24.76824695	      7.72347700	      0.00000000	      5.85940745	     -2.71341579	     -5.01521203	     18.93490512	      0.33047644	     29.10521464	     -5.05263858	      0.00000000	      0.13569796	      0.02072243	      1.78680251	      0.25200467	      0.02756084	      1.89847767	      0.22293817	      0.05038452	      1.89847767	      0.15508919	      0.05038452	      1.56345220	      0.12600912	      0.04225719	      1.45177704	      0.07753781	      0.03209905	      1.34010188	      0.96927693	      0.23441631	      9.93765953	      0.00000000	      0.00000000	     16.31834366	     -0.44749584	      0.08768081	     24.25352341	    -35.37489089	     53.44937842	    141.23728505	     73.48456452	     36.43695064	      3.32121513	     -0.01816274	    -14.99388089	     43.22003797	     39.96289625	     86.73648571	    -15.77618459	     -3.24304492
      3.27450980	      5.14814982	     -3.59904991	     84.47880678	      0.22566206	      0.96266124	      0.57477903	     -0.30257238	      1.46063081	      7.03503171	      5.98376620	      0.10443642	     25.03688093	      8.38652839	      0.00000000	      5.65632756	     -2.85372390	     -5.40302659	     19.00282974	      0.33166195	     29.36372143	     -4.58869692	      0.00000000	      0.13471496	      0.03215303	      1.77571818	      0.25017915	      0.04276353	      1.88670057	      0.22132320	      0.07817688	      1.88670057	      0.15396572	      0.07817688	      1.55375341	      0.12509631	      0.06556646	      1.44277102	      0.07697613	      0.04980504	      1.33178864	      0.96225546	      0.36372152	      9.87601182	      0.00000000	      0.00000000	     16.03629987	     -0.39455197	      0.17856852	     24.27347856	    -35.34425140	     53.61873366	    141.26767372	     72.37822625	     36.70429160	      4.36230601	     -0.25108058	    -14.91160742	     43.08563738	     39.84106142	     86.42659157	    -15.95828551	     -3.50557590
